Coordinates
version=1
nRows=43
nColumns=12
inDegrees=yes

Units are S.I. units (second, meters, Newtons, ...)
Angles are in degrees

endheader
time	SC_y	SC_z	SC_x	AC_y	AC_z	AC_x	GH_y	GH_z	GH_yy	EL_x	PS_y
       0.0              -31.07          26.11          13.47          50.89          6.576          6.732          99.38          23.28          -18.1          16.23          12.45
   0.04922              -31.07          26.11          13.48          50.88          6.576           6.73          99.39          23.29         -18.11          16.24          12.45
   0.09843              -31.07          26.11          13.49          50.88          6.575          6.727           99.4           23.3         -18.12          16.25          12.45
    0.1476              -31.07          26.11           13.5          50.88          6.575          6.725          99.41           23.3         -18.13          16.25          12.46
    0.1969              -31.07          26.12          13.51          50.88          6.575          6.722          99.42          23.31         -18.14          16.26          12.46
    0.2461              -31.07          26.12          13.51          50.88          6.574          6.719          99.43          23.32         -18.16          16.27          12.46
    0.2953              -31.08          26.12          13.52          50.88          6.574          6.715          99.44          23.32         -18.17          16.28          12.47
    0.3445              -31.08          26.13          13.53          50.88          6.574          6.712          99.45          23.33         -18.19          16.29          12.47
    0.3937              -31.08          26.13          13.55          50.87          6.573          6.708          99.47          23.34          -18.2           16.3          12.47
    0.4429              -31.08          26.13          13.56          50.87          6.573          6.704          99.48          23.35         -18.22          16.31          12.48
    0.4922              -31.08          26.14          13.57          50.87          6.572            6.7           99.5          23.36         -18.24          16.32          12.48
    0.5414              -31.09          26.14          13.58          50.87          6.572          6.695          99.51          23.37         -18.26          16.33          12.49
    0.5906              -31.09          26.14           13.6          50.86          6.571           6.69          99.53          23.38         -18.28          16.35          12.49
    0.6398              -31.09          26.15          13.62          50.86          6.571          6.685          99.55          23.39          -18.3          16.36           12.5
     0.689               -31.1          26.15          13.63          50.86           6.57          6.679          99.57          23.41         -18.33          16.38          12.51
    0.7382               -31.1          26.16          13.65          50.86          6.569          6.673          99.59          23.42         -18.35          16.39          12.51
    0.7874               -31.1          26.16          13.67          50.85          6.569          6.666          99.62          23.44         -18.38          16.41          12.52
    0.8367              -31.11          26.17           13.7          50.85          6.568          6.658          99.64          23.45         -18.41          16.43          12.53
    0.8859              -31.11          26.18          13.72          50.84          6.567           6.65          99.67          23.47         -18.45          16.46          12.54
    0.9351              -31.12          26.18          13.75          50.84          6.566          6.641          99.71          23.49         -18.49          16.48          12.55
    0.9843              -31.12          26.19          13.78          50.83          6.565          6.631          99.74          23.52         -18.53          16.51          12.56
     1.034              -31.13           26.2          13.81          50.83          6.564           6.62          99.78          23.54         -18.57          16.54          12.57
     1.083              -31.13          26.21          13.85          50.82          6.563          6.608          99.82          23.57         -18.62          16.57          12.58
     1.132              -31.14          26.22          13.88          50.81          6.561          6.595          99.87           23.6         -18.68           16.6           12.6
     1.181              -31.15          26.24          13.93          50.81           6.56           6.58          99.92          23.63         -18.74          16.64          12.61
      1.23              -31.16          26.25          13.98           50.8          6.558          6.564          99.98          23.67         -18.81          16.69          12.63
      1.28              -31.17          26.26          14.03          50.79          6.556          6.545          100.0          23.71         -18.89          16.74          12.65
     1.329              -31.18          26.28           14.1          50.78          6.554          6.524          100.1          23.76         -18.98          16.79          12.67
     1.378              -31.19           26.3          14.17          50.77          6.551          6.501          100.2          23.81         -19.08          16.86           12.7
     1.427              -31.21          26.32          14.25          50.75          6.548          6.474          100.3          23.87         -19.19          16.93          12.73
     1.476              -31.23          26.35          14.34          50.74          6.545          6.444          100.4          23.94         -19.32          17.01          12.76
     1.526              -31.24          26.38          14.44          50.72          6.541          6.409          100.5          24.02         -19.47           17.1           12.8
     1.575              -31.27          26.41          14.56           50.7          6.537          6.369          100.7          24.12         -19.64          17.21          12.84
     1.624              -31.29          26.45           14.7          50.67          6.532          6.322          100.8          24.22         -19.83          17.34           12.9
     1.673              -31.32           26.5          14.87          50.64          6.526          6.267          101.0          24.35         -20.07          17.49          12.96
     1.723              -31.36          26.55          15.06          50.61          6.519          6.202          101.3          24.49         -20.34          17.66          13.03
     1.772               -31.4          26.61          15.29          50.57          6.511          6.126          101.5          24.67         -20.66          17.87          13.11
     1.821              -31.45          26.69          15.57          50.52          6.501          6.034          101.9          24.88         -21.05          18.12          13.21
      1.87              -31.51          26.78           15.9          50.47          6.489          5.922          102.3          25.13         -21.52          18.42          13.33
     1.919              -31.59           26.9          16.31          50.39          6.475          5.786          102.8          25.45          -22.1          18.78          13.48
     1.969              -31.68          27.04          16.81          50.31          6.457          5.618          103.3          25.83          -22.8          19.23          13.66
     2.018               -31.8          27.21          17.43           50.2          6.434          5.409          104.1          26.31         -23.69           19.8          13.89
     2.067              -31.94          27.43          18.22          50.06          6.406          5.145          105.0          26.91          -24.8          20.51          14.18
